<?xml version="1.0" encoding="UTF-8"?>
<svg id="Layer_1" data-name="Layer 1" xmlns="http://www.w3.org/2000/svg" viewBox="0 0 733.47 765.99">
  <defs>
    <style>
      .cls-1 {
        fill: #77151c;
      }
    </style>
  </defs>
  <path class="cls-1" d="M379.56,0C465.61,0,455.87,151.26,521.61,210.3c65.74,59.04,190.41,6.59,210.09,75.47,19.68,68.88-131.27,104.99-150.95,177.22-19.68,72.23,122.89,202.97,53.28,268.81-69.61,65.84-138.18-38.52-253.22-33.92-115.04,4.61-209.46,99.76-278.44,57.15-68.98-42.6,62.91-216.79,49.3-280.75C138.07,410.34-.1,356.74,0,289.12c.1-67.62,151.99-49.2,196.9-101.75C241.81,134.83,293.62,0,379.67,0h-.1Z"/>
</svg>